<svg width="106" height="24" viewBox="0 0 106 24" fill="none" xmlns="http://www.w3.org/2000/svg">
<g clip-path="url(#clip0_3_58)">
<mask id="mask0_3_58" style="mask-type:luminance" maskUnits="userSpaceOnUse" x="0" y="0" width="106" height="24">
<path d="M105.155 0H0V24H105.155V0Z" fill="white"/>
</mask>
<g mask="url(#mask0_3_58)">
<path d="M53.9402 4.10596H59.0315C61.3394 4.10596 62.9352 5.4829 62.9352 7.79452C62.9352 10.1061 61.3394 11.3083 59.0315 11.2901H55.4965V16.5866H53.9402V4.10596ZM55.4965 9.89337H58.5148C60.2626 9.91085 61.3956 9.5005 61.3956 7.60531C61.3956 6.11742 60.2603 5.50114 58.5148 5.50114H55.4965V9.89337Z" fill="#202020"/>
<path d="M79.6674 4.10596H78.1165V16.5896H79.6674V4.10596Z" fill="#202020"/>
<path d="M83.0809 4.10693H84.5103L88.9512 14.6019L93.4559 4.10693H94.8906V16.5899H93.4179V7.90417H93.3898L89.6237 16.5906H88.2885L84.565 8.05083H84.5339V16.5899H83.0809V4.10693Z" fill="#202020"/>
<path d="M97.6779 4.10693H105.157V5.50059H99.2296V9.76669H105.157V11.1641H99.2296V15.1916H105.157V16.5883H97.6779V4.10693Z" fill="#202020"/>
<path d="M65.8174 4.10596H71.0448C73.2287 4.10596 74.5684 5.38183 74.5684 7.37354C74.5684 8.87663 73.9605 10.1213 72.5501 10.537L72.7895 10.5727C74.1444 10.8516 73.7394 11.9193 73.8602 13.1404C73.9605 14.37 73.886 15.7287 74.5441 16.5866H72.8176C72.3738 16.0851 72.6177 14.7294 72.3959 13.5128C72.2272 12.2833 72.6352 11.2559 71.1337 11.2559H67.3569V16.5866H65.8174V4.10596ZM70.3403 9.85538C71.7841 9.85538 73.0205 9.45263 73.0205 7.63722C73.0555 7.35448 73.0268 7.06748 72.9365 6.79726C72.8462 6.52704 72.6966 6.28045 72.4987 6.07556C72.3007 5.87067 72.0594 5.71267 71.7924 5.61314C71.5255 5.51362 71.2396 5.47509 70.9558 5.50038H67.3569V9.85538H70.3403Z" fill="#202020"/>
<path d="M37.8492 4.10693H39.2855L43.7286 14.6019L48.2272 4.10693H49.6597V16.5899H48.2029V7.90569H48.1702L44.3859 16.5899H43.0759L39.3516 8.05083H39.3212V16.5899H37.8492V4.10693Z" fill="#202020"/>
<path d="M12.7884 12.0395C12.3372 13.5333 11.3664 14.8164 10.0514 15.6567C8.73651 16.497 7.1643 16.839 5.61912 16.621C4.07394 16.4029 2.65779 15.6391 1.62677 14.4677C0.595743 13.2964 0.0179012 11.7947 -0.00226161 10.2344C-0.0224244 8.674 0.516422 7.15793 1.51684 5.9603C2.51725 4.76268 3.91319 3.96256 5.45222 3.70464C6.99125 3.44672 8.57177 3.74803 9.90797 4.55407C11.2442 5.36011 12.2478 6.61768 12.7375 8.09936H11.1576C10.6844 7.03426 9.85741 6.16554 8.8169 5.64039C7.77639 5.11525 6.58632 4.96598 5.44835 5.21788C4.31038 5.46978 3.29449 6.10736 2.57283 7.02258C1.85116 7.9378 1.4681 9.07438 1.48855 10.2397C1.509 11.4051 1.93171 12.5275 2.68505 13.4168C3.43839 14.3062 4.47602 14.9077 5.62213 15.1195C6.76824 15.3313 7.95234 15.1404 8.97378 14.5791C9.99522 14.0177 10.7912 13.1205 11.2268 12.0395H12.7884Z" fill="#202020"/>
<path d="M35.3628 9.30368C35.365 7.36577 34.7612 5.47567 33.6358 3.89797C32.5105 2.32028 30.92 1.13399 29.0869 0.505156C27.2539 -0.123675 25.27 -0.163558 23.4132 0.39109C21.5563 0.945738 19.9194 2.06715 18.7316 3.59834C19.3731 3.10554 20.0752 2.69694 20.8205 2.38249C22.4973 1.10891 24.5797 0.488077 26.6801 0.635599C28.7806 0.783122 30.7558 1.68894 32.238 3.1844C33.7203 4.67986 34.6086 6.66304 34.7375 8.76467C34.8664 10.8663 34.2271 12.9432 32.9387 14.6086C32.6204 15.3521 32.2055 16.0504 31.7046 16.6854C32.8413 15.8194 33.7627 14.7028 34.3972 13.4225C35.0317 12.1421 35.3621 10.7326 35.3628 9.30368Z" fill="#202020"/>
<path d="M16.7649 9.30349C16.7638 7.23514 17.4566 5.2262 18.7323 3.59814C17.6828 4.39988 16.8162 5.41618 16.1904 6.57928C15.5646 7.74237 15.1941 9.02552 15.1034 10.3432C15.0127 11.6608 15.2039 12.9826 15.6644 14.2205C16.1249 15.4583 16.8441 16.5838 17.7739 17.5218C18.7037 18.4598 19.8228 19.1887 21.0566 19.66C22.2904 20.1314 23.6105 20.3342 24.9289 20.255C26.2473 20.1759 27.5336 19.8165 28.7021 19.2009C29.8707 18.5853 30.8945 17.7277 31.7054 16.6852C30.3291 17.74 28.685 18.3885 26.9593 18.5574C25.2335 18.7262 23.4949 18.4087 21.9403 17.6406C20.3856 16.8725 19.077 15.6846 18.1625 14.2114C17.248 12.7381 16.7642 11.0383 16.7657 9.30425" fill="#202020"/>
<path d="M17.3737 9.30355C17.3726 11.1172 17.9393 12.8856 18.9944 14.3608C20.0495 15.8359 21.5399 16.9437 23.2566 17.5287C24.9732 18.1138 26.83 18.1466 28.5663 17.6228C30.3026 17.0989 31.8313 16.0445 32.938 14.6077C33.6609 12.9083 33.8613 11.0322 33.5137 9.21856C33.166 7.40489 32.2862 5.73583 30.9862 4.42421C29.6862 3.11259 28.0251 2.21784 26.2146 1.85405C24.4041 1.49026 22.5263 1.67392 20.8206 2.3816C19.7498 3.19014 18.8812 4.2361 18.283 5.43719C17.6849 6.63829 17.3736 7.96177 17.3737 9.30355ZM24.3777 7.24041C25.116 7.24086 25.8377 7.46019 26.4514 7.87068C27.0651 8.28117 27.5434 8.86439 27.8258 9.54662C28.1081 10.2289 28.1819 10.9795 28.0377 11.7036C27.8935 12.4278 27.5379 13.0929 27.0158 13.615C26.4938 14.1371 25.8286 14.4927 25.1045 14.6369C24.3803 14.781 23.6297 14.7073 22.9475 14.4249C22.2652 14.1426 21.682 13.6643 21.2715 13.0506C20.861 12.4369 20.6417 11.7152 20.6412 10.9769C20.6403 10.4859 20.7364 9.99965 20.9238 9.54591C21.1113 9.09218 21.3865 8.67992 21.7336 8.33278C22.0807 7.98564 22.493 7.71045 22.9467 7.523C23.4005 7.33554 23.8868 7.23951 24.3777 7.24041Z" fill="#202020"/>
<path d="M40.5872 20.4467C40.5442 20.2192 40.4186 20.0157 40.2345 19.8754C40.0504 19.7351 39.8209 19.6679 39.5902 19.6868C38.7338 19.6868 38.3827 20.3904 38.3827 21.1344C38.3827 21.9459 38.7338 22.6299 39.5985 22.6299C39.7345 22.6326 39.8696 22.6077 39.9957 22.5566C40.1217 22.5055 40.236 22.4293 40.3317 22.3326C40.4274 22.2359 40.5024 22.1208 40.5522 21.9943C40.602 21.8677 40.6255 21.7323 40.6214 21.5964H41.1039C41.1006 21.7932 41.0574 21.9873 40.977 22.167C40.8967 22.3466 40.7807 22.5082 40.6362 22.6418C40.4917 22.7755 40.3216 22.8784 40.1362 22.9446C39.9508 23.0107 39.754 23.0386 39.5575 23.0265C39.3213 23.0306 39.087 22.9836 38.8707 22.8888C38.6544 22.7939 38.4611 22.6534 38.3041 22.4769C38.1471 22.3003 38.0302 22.092 37.9612 21.866C37.8923 21.6401 37.873 21.4019 37.9047 21.1678C37.8788 20.9303 37.9034 20.6899 37.9767 20.4625C38.0501 20.2351 38.1706 20.0258 38.3304 19.8481C38.4902 19.6705 38.6856 19.5285 38.904 19.4316C39.1224 19.3346 39.3588 19.2849 39.5978 19.2855C39.945 19.255 40.2907 19.3582 40.5644 19.574C40.8381 19.7898 41.0191 20.1019 41.0705 20.4467H40.5872Z" fill="#202020"/>
<path d="M42.5355 21.6545C42.5355 21.0245 42.8866 20.6712 43.3403 20.6712C43.7939 20.6712 44.1435 21.0245 44.1435 21.6545C44.1435 22.2844 43.7841 22.6294 43.3403 22.6294C42.8965 22.6294 42.5355 22.2776 42.5355 21.6545ZM42.0841 21.6545C42.0693 21.8281 42.0907 22.003 42.147 22.1679C42.2033 22.3328 42.2932 22.4843 42.4111 22.6127C42.529 22.741 42.6722 22.8435 42.8318 22.9136C42.9913 22.9837 43.1637 23.0199 43.338 23.0199C43.5123 23.0199 43.6846 22.9837 43.8442 22.9136C44.0037 22.8435 44.147 22.741 44.2649 22.6127C44.3828 22.4843 44.4727 22.3328 44.529 22.1679C44.5852 22.003 44.6066 21.8281 44.5918 21.6545C44.6066 21.4808 44.5852 21.306 44.529 21.1411C44.4727 20.9761 44.3828 20.8247 44.2649 20.6963C44.147 20.568 44.0037 20.4655 43.8442 20.3954C43.6846 20.3253 43.5123 20.2891 43.338 20.2891C43.1637 20.2891 42.9913 20.3253 42.8318 20.3954C42.6722 20.4655 42.529 20.568 42.4111 20.6963C42.2932 20.8247 42.2033 20.9761 42.147 21.1411C42.0907 21.306 42.0693 21.4808 42.0841 21.6545Z" fill="#202020"/>
<path d="M45.6967 20.3582H46.0903V20.7701H46.1063C46.1865 20.6189 46.3088 20.494 46.4583 20.4106C46.6078 20.3272 46.7782 20.2887 46.949 20.2997C47.6276 20.2997 47.8404 20.6903 47.8404 21.242V22.9434H47.4133V21.1911C47.4176 21.1211 47.4069 21.0511 47.3819 20.9856C47.3569 20.9202 47.3182 20.8608 47.2685 20.8115C47.2187 20.7622 47.1589 20.7242 47.0932 20.6998C47.0275 20.6755 46.9573 20.6655 46.8875 20.6705C46.781 20.6648 46.6746 20.6824 46.5756 20.7222C46.4767 20.7619 46.3876 20.8227 46.3147 20.9005C46.2417 20.9782 46.1866 21.071 46.1532 21.1722C46.1199 21.2735 46.109 21.3808 46.1215 21.4867V22.9434H45.6959L45.6967 20.3582Z" fill="#202020"/>
<path d="M50.839 21.1877C50.8153 21.0364 50.7359 20.8995 50.6164 20.8038C50.4969 20.708 50.3459 20.6604 50.1931 20.6702C49.5783 20.6702 49.3876 21.1565 49.3876 21.6809C49.3876 22.1566 49.6011 22.6292 50.1475 22.6292C50.2357 22.6346 50.324 22.6225 50.4075 22.5937C50.491 22.5649 50.5681 22.5199 50.6342 22.4614C50.7003 22.4028 50.7542 22.3318 50.7929 22.2524C50.8316 22.1729 50.8542 22.0867 50.8595 21.9985H51.2927C51.2837 22.1392 51.2471 22.2766 51.1849 22.4031C51.1227 22.5296 51.0362 22.6426 50.9304 22.7356C50.8245 22.8286 50.7014 22.8998 50.5679 22.9452C50.4345 22.9906 50.2935 23.0092 50.1528 23.0001C49.9824 23.0067 49.8125 22.9762 49.655 22.9108C49.4975 22.8454 49.356 22.7465 49.2404 22.6211C49.1248 22.4957 49.0378 22.3467 48.9854 22.1843C48.933 22.022 48.9165 21.8502 48.937 21.6809C48.9141 21.5074 48.9288 21.3309 48.98 21.1636C49.0313 20.9962 49.1178 20.8418 49.2339 20.7108C49.35 20.5798 49.4929 20.4753 49.6528 20.4043C49.8128 20.3333 49.9862 20.2975 50.1612 20.2994C50.2932 20.2821 50.4274 20.2916 50.5556 20.3273C50.6839 20.3629 50.8037 20.424 50.9079 20.5069C51.0121 20.5897 51.0986 20.6927 51.1622 20.8097C51.2259 20.9266 51.2653 21.0552 51.2782 21.1877H50.839Z" fill="#202020"/>
<path d="M52.6696 21.4021C52.6734 21.2065 52.7538 21.0201 52.8937 20.8832C53.0336 20.7464 53.2216 20.6699 53.4173 20.6703C53.6121 20.6724 53.7985 20.7497 53.9376 20.8861C54.0767 21.0225 54.1577 21.2074 54.1635 21.4021H52.6696ZM54.1476 22.1255C54.1203 22.2772 54.037 22.4132 53.9143 22.5065C53.7916 22.5997 53.6384 22.6436 53.4849 22.6294C53.3729 22.6369 53.2607 22.6198 53.156 22.5793C53.0513 22.5388 52.9568 22.4758 52.879 22.3948C52.8013 22.3138 52.7423 22.2168 52.7061 22.1105C52.6699 22.0043 52.6574 21.8914 52.6696 21.7798H54.6058C54.6452 21.6082 54.6467 21.43 54.6102 21.2578C54.5737 21.0856 54.5 20.9234 54.3944 20.7825C54.2887 20.6416 54.1536 20.5255 53.9985 20.4423C53.8433 20.359 53.6719 20.3106 53.4961 20.3004C53.3203 20.2902 53.1445 20.3184 52.9807 20.3832C52.817 20.448 52.6694 20.5477 52.5481 20.6754C52.4269 20.803 52.335 20.9556 52.2788 21.1225C52.2226 21.2894 52.2035 21.4665 52.2227 21.6415C52.2501 22.4325 52.643 23.001 53.4621 23.001C53.7233 23.0223 53.9828 22.9439 54.1885 22.7817C54.3942 22.6194 54.5308 22.3852 54.5708 22.1263L54.1476 22.1255Z" fill="#202020"/>
<path d="M57.6712 21.6293C57.6712 22.1285 57.4706 22.6286 56.8961 22.6286C56.3042 22.6286 56.0808 22.1567 56.0808 21.6506C56.0808 21.1597 56.2935 20.6703 56.865 20.6703C57.4159 20.6703 57.6712 21.1384 57.6712 21.6293ZM55.6674 23.9386H56.0929V22.6012H56.0975C56.1948 22.7308 56.3221 22.8348 56.4685 22.9043C56.6149 22.9738 56.776 23.0067 56.9379 23.0001C57.107 23.0002 57.2741 22.9644 57.4282 22.895C57.5824 22.8256 57.72 22.7243 57.832 22.5977C57.944 22.4711 58.0279 22.3221 58.078 22.1607C58.1281 21.9992 58.1433 21.829 58.1226 21.6612C58.1433 21.4911 58.1278 21.3185 58.0771 21.1548C58.0263 20.991 57.9416 20.8399 57.8284 20.7112C57.7151 20.5826 57.576 20.4793 57.42 20.4082C57.2641 20.3371 57.0949 20.2998 56.9235 20.2987C56.7602 20.2835 56.596 20.3143 56.4493 20.3877C56.3027 20.461 56.1795 20.5739 56.0937 20.7136H56.0891V20.358H55.6636L55.6674 23.9386Z" fill="#202020"/>
<path d="M59.8089 20.3578H60.3241V20.7377H59.8089V22.3381C59.8089 22.5303 59.8659 22.5661 60.1273 22.5661H60.3241V22.946H60.0011C59.5558 22.946 59.378 22.8571 59.378 22.3829V20.7347H58.9403V20.3547H59.378V19.5781H59.8081L59.8089 20.3578Z" fill="#202020"/>
<path d="M63.5347 22.9441H63.1342V22.5337H63.1206C63.0414 22.682 62.9215 22.8047 62.7751 22.8873C62.6287 22.97 62.4617 23.0092 62.2938 23.0003C61.6008 23.0003 61.3933 22.6143 61.3933 22.058V20.3589H61.831V22.1067C61.8242 22.1758 61.8325 22.2455 61.8555 22.3111C61.8785 22.3766 61.9156 22.4363 61.9641 22.486C62.0126 22.5357 62.0714 22.5741 62.1364 22.5986C62.2014 22.6232 62.2709 22.6332 62.3402 22.628C62.4466 22.6341 62.5531 22.617 62.6522 22.5778C62.7513 22.5386 62.8408 22.4783 62.9142 22.4011C62.9877 22.3238 63.0435 22.2315 63.0777 22.1305C63.1119 22.0296 63.1236 21.9224 63.1122 21.8164V20.3589H63.5347V22.9441Z" fill="#202020"/>
<path d="M66.3775 22.0532C66.3775 22.2811 66.1495 22.6292 65.5864 22.6292C65.3304 22.6292 65.0849 22.5266 65.0849 22.2492C65.0849 21.9361 65.3296 21.8366 65.61 21.7864C65.8749 21.7765 66.1354 21.7159 66.3775 21.6079V22.0532ZM67.066 22.6033C67.0265 22.6208 66.9837 22.6296 66.9406 22.6292C66.8076 22.6292 66.8076 22.5441 66.8076 22.3419V21.0075C66.8076 20.3996 66.303 20.2993 65.8319 20.2993C65.2604 20.2993 64.768 20.5227 64.743 21.161H65.1632C65.1845 20.7811 65.4451 20.6701 65.8038 20.6701C66.0842 20.6701 66.3813 20.7347 66.3813 21.101C66.3813 21.4247 65.9793 21.3981 65.5112 21.4863C65.072 21.5699 64.6373 21.6922 64.6373 22.2773C64.6373 22.7918 65.0173 23.0008 65.4937 23.0008C65.6659 23.0077 65.8374 22.9756 65.9953 22.9068C66.1533 22.8379 66.2935 22.7342 66.4056 22.6033C66.4056 22.8837 66.5424 23.0008 66.7635 23.0008C66.869 23.0104 66.975 22.9878 67.0675 22.9362L67.066 22.6033Z" fill="#202020"/>
<path d="M68.5181 19.3745H68.0842V22.9453H68.5181V19.3745Z" fill="#202020"/>
<path d="M72.3146 19.7736H73.1148C73.9924 19.7736 74.2972 20.2857 74.2972 21.1414C74.2972 22.4537 73.4263 22.5472 73.0988 22.5472H72.3146V19.7736ZM71.8427 22.9446H73.0623C74.2523 22.9446 74.7858 22.2698 74.7858 21.0783C74.8148 20.8459 74.7901 20.6099 74.7134 20.3885C74.6368 20.1672 74.5103 19.9664 74.3438 19.8017C74.1772 19.637 73.975 19.5127 73.7529 19.4386C73.5307 19.3644 73.2944 19.3422 73.0623 19.3738H71.8419L71.8427 22.9446Z" fill="#202020"/>
<path d="M76.1977 21.4022C76.2011 21.2075 76.2805 21.022 76.419 20.8852C76.5575 20.7485 76.744 20.6713 76.9386 20.6704C77.1343 20.6713 77.3219 20.748 77.4621 20.8845C77.6023 21.021 77.6841 21.2066 77.6902 21.4022H76.1977ZM77.6757 22.1256C77.6459 22.2778 77.5607 22.4135 77.4366 22.5066C77.3126 22.5996 77.1584 22.6434 77.004 22.6294C76.8925 22.6362 76.781 22.6186 76.6771 22.5776C76.5732 22.5367 76.4796 22.4736 76.4027 22.3926C76.3259 22.3116 76.2677 22.2148 76.2323 22.1089C76.1969 22.0031 76.1851 21.8907 76.1977 21.7798H78.1362C78.1613 21.1567 77.8832 20.3003 76.9698 20.3003C76.7999 20.3032 76.6324 20.3408 76.4776 20.4108C76.3228 20.4808 76.1839 20.5817 76.0695 20.7073C75.955 20.8329 75.8675 20.9805 75.8122 21.1412C75.7569 21.3018 75.735 21.4721 75.7478 21.6415C75.7752 22.4326 76.1665 23.001 76.9918 23.001C77.2517 23.0205 77.5094 22.9413 77.7135 22.7792C77.9176 22.617 78.0531 22.3839 78.0929 22.1263L77.6757 22.1256Z" fill="#202020"/>
<path d="M79.4379 22.1287C79.4538 22.5086 79.7814 22.6287 80.1332 22.6287C80.3946 22.6287 80.7632 22.5725 80.7632 22.2419C80.7632 21.9113 80.3361 21.8551 79.9113 21.7601C79.4865 21.6651 79.0625 21.5322 79.0625 21.0344C79.0625 20.5139 79.58 20.2988 80.0298 20.2988C80.6028 20.2988 81.0542 20.4797 81.0937 21.1081H80.6735C80.6385 20.7776 80.3483 20.6697 80.08 20.6697C79.8118 20.6697 79.5192 20.7419 79.5192 21.0017C79.5192 21.3057 79.9653 21.3589 80.3657 21.4501C80.7913 21.5443 81.2069 21.6917 81.2069 22.1872C81.2069 22.8035 80.6393 22.9995 80.1127 22.9995C79.5314 22.9995 79.042 22.7716 79.0154 22.1287H79.4379Z" fill="#202020"/>
<path d="M82.302 20.3581H82.7245V22.9418H82.302V20.3581ZM82.7238 19.8953H82.3013V19.374H82.7238V19.8953Z" fill="#202020"/>
<path d="M85.0309 22.6003C84.4678 22.6003 84.3006 22.079 84.3006 21.6125C84.3006 21.1155 84.5217 20.6664 85.0605 20.6664C85.5993 20.6664 85.7976 21.1345 85.7976 21.5927C85.7976 22.0783 85.5848 22.5973 85.0278 22.5973M86.2201 20.3548H85.8181V20.7287C85.7423 20.5917 85.6297 20.4785 85.493 20.4021C85.3563 20.3257 85.201 20.2891 85.0445 20.2963C84.8735 20.298 84.7048 20.3357 84.5494 20.4069C84.394 20.4782 84.2553 20.5815 84.1425 20.71C84.0297 20.8385 83.9453 20.9894 83.8947 21.1527C83.8442 21.3161 83.8287 21.4883 83.8492 21.6581C83.8285 21.822 83.8427 21.9884 83.891 22.1465C83.9393 22.3045 84.0206 22.4504 84.1295 22.5747C84.2383 22.699 84.3723 22.7989 84.5226 22.8676C84.6729 22.9363 84.836 22.9724 85.0012 22.9734C85.1664 22.9813 85.3304 22.9414 85.4734 22.8583C85.6164 22.7753 85.7324 22.6527 85.8075 22.5053H85.8212V22.6786C85.8212 23.2546 85.6076 23.6581 85.0468 23.6581C84.7618 23.6581 84.3948 23.5464 84.3781 23.2348H83.9465C83.9769 23.7995 84.5354 24.0016 85.0202 24.0016C85.8356 24.0016 86.2231 23.5707 86.2231 22.725L86.2201 20.3548Z" fill="#202020"/>
<path d="M87.4617 20.3581H87.853V20.77H87.8614C87.9457 20.621 88.0696 20.4983 88.2195 20.4157C88.3694 20.333 88.5393 20.2936 88.7102 20.3019C89.3941 20.3019 89.6016 20.6924 89.6016 21.2426V22.9433H89.1692V21.1909C89.175 21.1213 89.1657 21.0512 89.1417 20.9856C89.1178 20.9199 89.0798 20.8603 89.0305 20.8107C88.9812 20.7612 88.9217 20.723 88.8562 20.6988C88.7906 20.6746 88.7206 20.6649 88.6509 20.6704C88.5448 20.6649 88.4388 20.6828 88.3403 20.7227C88.2418 20.7626 88.1532 20.8236 88.0808 20.9013C88.0083 20.9791 87.9538 21.0718 87.9211 21.1729C87.8883 21.274 87.878 21.3811 87.891 21.4865V22.9433H87.4609L87.4617 20.3581Z" fill="#202020"/>
<path d="M90.8668 20.3581H91.2939V22.9418H90.8668V20.3581ZM91.2939 19.8953H90.8668V19.374H91.2939V19.8953Z" fill="#202020"/>
<path d="M92.5622 20.3579H92.9505V20.7698H92.9672C93.0476 20.6204 93.1689 20.4969 93.317 20.414C93.465 20.3311 93.6337 20.2922 93.8031 20.3017C94.487 20.3017 94.699 20.6923 94.699 21.2425V22.9431H94.2712V21.1908C94.2756 21.121 94.265 21.051 94.2401 20.9856C94.2153 20.9202 94.1768 20.8609 94.1271 20.8116C94.0775 20.7623 94.0178 20.7242 93.9523 20.6998C93.8867 20.6754 93.8166 20.6654 93.7468 20.6703C93.6399 20.6638 93.5328 20.6808 93.4332 20.7202C93.3335 20.7595 93.2437 20.8202 93.17 20.898C93.0964 20.9758 93.0406 21.0688 93.0068 21.1705C92.9729 21.2721 92.9617 21.38 92.974 21.4864V22.9431H92.5614L92.5622 20.3579Z" fill="#202020"/>
<path d="M96.9772 22.6004C96.4209 22.6004 96.2522 22.0791 96.2522 21.6125C96.2522 21.1156 96.4696 20.6665 97.0122 20.6665C97.5547 20.6665 97.7515 21.1346 97.7515 21.5928C97.7515 22.0784 97.5327 22.5974 96.9742 22.5974M98.1664 20.3549H97.766V20.7288H97.7614C97.686 20.5915 97.5736 20.4783 97.437 20.4018C97.3003 20.3254 97.145 20.2888 96.9886 20.2964C96.8175 20.2979 96.6487 20.3355 96.4932 20.4068C96.3377 20.478 96.1989 20.5813 96.0861 20.7098C95.9732 20.8383 95.8887 20.9892 95.8381 21.1526C95.7875 21.3161 95.772 21.4883 95.7925 21.6581C95.7721 21.8226 95.7868 21.9896 95.8357 22.148C95.8846 22.3063 95.9666 22.4525 96.0762 22.5769C96.1858 22.7012 96.3206 22.8009 96.4716 22.8693C96.6226 22.9376 96.7864 22.9732 96.9521 22.9735C97.1178 22.9805 97.282 22.9402 97.4256 22.8573C97.5692 22.7744 97.6862 22.6524 97.7629 22.5054H97.7721V22.6787C97.7721 23.2547 97.557 23.6582 96.9947 23.6582C96.7135 23.6582 96.3427 23.5465 96.3313 23.2349H95.8981C95.9331 23.7995 96.4878 24.0017 96.9749 24.0017C97.785 24.0017 98.1718 23.5708 98.1718 22.725L98.1664 20.3549Z" fill="#202020"/>
</g>
</g>
<defs>
<clipPath id="clip0_3_58">
<rect width="105.155" height="24" fill="white"/>
</clipPath>
</defs>
</svg>
