<svg width="152" height="152" viewBox="0 0 152 152" fill="none" xmlns="http://www.w3.org/2000/svg">
<circle cx="76" cy="76" r="75.5" fill="white" fill-opacity="0.2" stroke="#202020"/>
<path d="M24.7711 67.4C24.7711 68.328 24.9684 69.16 25.3631 69.896C25.7684 70.632 26.3177 71.2133 27.0111 71.64C27.7151 72.056 28.5151 72.264 29.4111 72.264C30.3071 72.264 31.1017 72.056 31.7951 71.64C32.4991 71.2133 33.0484 70.632 33.4431 69.896C33.8377 69.16 34.0351 68.328 34.0351 67.4C34.0351 66.4613 33.8377 65.6293 33.4431 64.904C33.0484 64.168 32.4991 63.592 31.7951 63.176C31.1017 62.7493 30.3071 62.536 29.4111 62.536C28.5151 62.536 27.7151 62.7493 27.0111 63.176C26.3177 63.592 25.7684 64.168 25.3631 64.904C24.9684 65.6293 24.7711 66.4613 24.7711 67.4ZM23.8431 67.4C23.8431 66.5787 23.9817 65.8213 24.2591 65.128C24.5364 64.424 24.9257 63.816 25.4271 63.304C25.9284 62.7813 26.5151 62.376 27.1871 62.088C27.8697 61.8 28.6111 61.656 29.4111 61.656C30.2111 61.656 30.9471 61.8 31.6191 62.088C32.3017 62.376 32.8937 62.7813 33.3951 63.304C33.8964 63.816 34.2857 64.424 34.5631 65.128C34.8404 65.8213 34.9791 66.5787 34.9791 67.4C34.9791 68.2213 34.8404 68.984 34.5631 69.688C34.2857 70.3813 33.8964 70.9893 33.3951 71.512C32.8937 72.024 32.3017 72.424 31.6191 72.712C30.9471 73 30.2111 73.144 29.4111 73.144C28.6111 73.144 27.8697 73 27.1871 72.712C26.5151 72.424 25.9284 72.024 25.4271 71.512C24.9257 70.9893 24.5364 70.3813 24.2591 69.688C23.9817 68.984 23.8431 68.2213 23.8431 67.4ZM46.0219 61.8H46.9019V73.432L38.3899 63.656V73H37.5099V61.368L46.0219 71.176V61.8ZM50.0681 61.8H50.9481V72.168H55.5721V73H50.0681V61.8ZM57.5942 61.8H58.4742V73H57.5942V61.8ZM70.1182 61.8H70.9982V73.432L62.4862 63.656V73H61.6062V61.368L70.1182 71.176V61.8ZM74.6283 73V72.168H80.1803V73H74.6283ZM74.6283 62.632V61.8H80.1803V62.632H74.6283ZM74.6283 67.272V66.44H79.8603V67.272H74.6283ZM74.1643 61.8H75.0443V73H74.1643V61.8ZM88.5481 69.768C88.7294 70.2373 88.9481 70.664 89.2041 71.048C89.4707 71.432 89.7961 71.7413 90.1801 71.976C90.5641 72.2 91.0227 72.312 91.5561 72.312C92.2814 72.312 92.8467 72.1147 93.2521 71.72C93.6681 71.3147 93.8761 70.8027 93.8761 70.184C93.8761 69.64 93.7534 69.2027 93.5081 68.872C93.2627 68.5413 92.9427 68.2747 92.5481 68.072C92.1641 67.8587 91.7587 67.672 91.3321 67.512C91.0121 67.3947 90.6761 67.256 90.3241 67.096C89.9827 66.9253 89.6627 66.7227 89.3641 66.488C89.0654 66.2427 88.8201 65.9493 88.6281 65.608C88.4467 65.2667 88.3561 64.856 88.3561 64.376C88.3561 63.8427 88.4841 63.3733 88.7401 62.968C88.9961 62.552 89.3534 62.232 89.8121 62.008C90.2707 61.7733 90.7881 61.656 91.3641 61.656C91.9614 61.656 92.4734 61.768 92.9001 61.992C93.3374 62.216 93.7001 62.4987 93.9881 62.84C94.2761 63.1813 94.4947 63.5333 94.6441 63.896L93.8761 64.328C93.7587 64.04 93.5881 63.7573 93.3641 63.48C93.1507 63.2027 92.8787 62.9733 92.5481 62.792C92.2174 62.6 91.8067 62.504 91.3161 62.504C90.6654 62.504 90.1641 62.6747 89.8121 63.016C89.4601 63.3467 89.2841 63.7627 89.2841 64.264C89.2841 64.68 89.3854 65.0373 89.5881 65.336C89.7907 65.6347 90.0947 65.9067 90.5001 66.152C90.9054 66.3867 91.4067 66.6107 92.0041 66.824C92.3134 66.9413 92.6334 67.0853 92.9641 67.256C93.2947 67.4267 93.5934 67.64 93.8601 67.896C94.1374 68.152 94.3614 68.4613 94.5321 68.824C94.7027 69.176 94.7881 69.5973 94.7881 70.088C94.7881 70.5467 94.7027 70.9627 94.5321 71.336C94.3721 71.7093 94.1427 72.0347 93.8441 72.312C93.5561 72.5787 93.2147 72.7867 92.8201 72.936C92.4254 73.0747 91.9987 73.144 91.5401 73.144C90.8894 73.144 90.3187 73.0107 89.8281 72.744C89.3374 72.4773 88.9267 72.12 88.5961 71.672C88.2654 71.224 88.0094 70.7387 87.8281 70.216L88.5481 69.768ZM97.8027 67.32V66.488H105.355V67.32H97.8027ZM104.763 61.8H105.659V73H104.763V61.8ZM97.3387 61.8H98.2187V73H97.3387V61.8ZM109.122 67.4C109.122 68.328 109.32 69.16 109.714 69.896C110.12 70.632 110.669 71.2133 111.362 71.64C112.066 72.056 112.866 72.264 113.762 72.264C114.658 72.264 115.453 72.056 116.146 71.64C116.85 71.2133 117.4 70.632 117.794 69.896C118.189 69.16 118.386 68.328 118.386 67.4C118.386 66.4613 118.189 65.6293 117.794 64.904C117.4 64.168 116.85 63.592 116.146 63.176C115.453 62.7493 114.658 62.536 113.762 62.536C112.866 62.536 112.066 62.7493 111.362 63.176C110.669 63.592 110.12 64.168 109.714 64.904C109.32 65.6293 109.122 66.4613 109.122 67.4ZM108.194 67.4C108.194 66.5787 108.333 65.8213 108.61 65.128C108.888 64.424 109.277 63.816 109.778 63.304C110.28 62.7813 110.866 62.376 111.538 62.088C112.221 61.8 112.962 61.656 113.762 61.656C114.562 61.656 115.298 61.8 115.97 62.088C116.653 62.376 117.245 62.7813 117.746 63.304C118.248 63.816 118.637 64.424 118.914 65.128C119.192 65.8213 119.33 66.5787 119.33 67.4C119.33 68.2213 119.192 68.984 118.914 69.688C118.637 70.3813 118.248 70.9893 117.746 71.512C117.245 72.024 116.653 72.424 115.97 72.712C115.298 73 114.562 73.144 113.762 73.144C112.962 73.144 112.221 73 111.538 72.712C110.866 72.424 110.28 72.024 109.778 71.512C109.277 70.9893 108.888 70.3813 108.61 69.688C108.333 68.984 108.194 68.2213 108.194 67.4ZM121.861 61.8H122.741V73H121.861V61.8ZM122.357 62.632V61.8H124.485C125.189 61.8 125.813 61.9333 126.357 62.2C126.912 62.4667 127.349 62.8453 127.669 63.336C127.989 63.8267 128.149 64.4187 128.149 65.112C128.149 65.7947 127.989 66.3867 127.669 66.888C127.349 67.3893 126.912 67.7733 126.357 68.04C125.813 68.296 125.189 68.424 124.485 68.424H122.357V67.592H124.485C125.307 67.592 125.973 67.3787 126.485 66.952C126.997 66.5253 127.253 65.912 127.253 65.112C127.253 64.3013 126.997 63.688 126.485 63.272C125.973 62.8453 125.307 62.632 124.485 62.632H122.357Z" fill="#202020"/>
<path fill-rule="evenodd" clip-rule="evenodd" d="M75.9263 90H87V100.828H85.9933V91.7185L65.7118 112L65 111.288L85.2815 91.0067H75.9263V90Z" fill="#202020"/>
</svg>
