<svg width="50" height="50" viewBox="0 0 50 50" fill="none" xmlns="http://www.w3.org/2000/svg">
<g clip-path="url(#clip0_5_177)">
<path d="M14.8667 4.80533C17.1974 6.60799 18.9833 9.02868 20.5013 11.3396L21.3834 12.707L22.2153 14.0125C22.6315 14.6595 22.7952 15.437 22.6751 16.1969C22.555 16.9568 22.1596 17.646 21.5641 18.1331L17.415 21.0347C17.2147 21.1708 17.0706 21.375 17.0094 21.6094C16.9483 21.8438 16.9743 22.0924 17.0827 22.309C17.9554 24.0075 19.5211 26.5449 21.3419 28.4727C23.1647 30.4005 25.7221 32.22 27.4818 33.2957C27.7024 33.428 27.9654 33.4707 28.2167 33.4151C28.4679 33.3594 28.6883 33.2097 28.8325 32.9966L31.5922 29.0466C32.0968 28.4146 32.8265 28.0024 33.6283 27.8963C34.4301 27.7902 35.2418 27.9985 35.8935 28.4775L37.2469 29.4728C39.776 31.3373 42.4897 33.4511 44.5322 36.2251C44.856 36.6674 45.0552 37.1886 45.1089 37.7341C45.1626 38.2797 45.0689 38.8297 44.8376 39.3267C42.9784 43.344 38.4688 46.6813 33.8859 46.3816L33.2622 46.3284L32.7782 46.2729L32.2427 46.1951L31.6598 46.0993L31.0276 45.977C30.9169 45.9538 30.8065 45.9298 30.6962 45.905L30.0007 45.7351C29.8791 45.7047 29.7577 45.6735 29.6366 45.6413L28.88 45.4238L28.0848 45.1719L27.2553 44.8772C23.4483 43.4639 18.6421 40.7631 13.7788 35.6139C8.91741 30.4669 6.49524 25.5145 5.30135 21.633L5.05452 20.7881L4.84834 19.9798L4.67434 19.212L4.53248 18.4868C4.492 18.2598 4.45473 18.0323 4.42066 17.8042L4.33467 17.1661L4.26807 16.5785L4.22302 16.0395L4.19522 15.5531L4.17974 14.9274C4.1416 10.3495 7.76906 6.00745 11.8669 4.38831C12.3602 4.19182 12.8961 4.12695 13.422 4.20006C13.9479 4.27317 14.4457 4.48175 14.8667 4.80533Z" fill="#202020"/>
</g>
<defs>
<clipPath id="clip0_5_177">
<rect width="50" height="50" fill="white"/>
</clipPath>
</defs>
</svg>
